<?xml version="1.0" standalone="no"?><!DOCTYPE svg PUBLIC "-//W3C//DTD SVG 1.1//EN" "http://www.w3.org/Graphics/SVG/1.1/DTD/svg11.dtd"><svg t="1781874055704" class="icon" viewBox="0 0 1585 1024" version="1.1" xmlns="http://www.w3.org/2000/svg" p-id="10114" xmlns:xlink="http://www.w3.org/1999/xlink" width="309.5703125" height="200"><path d="M526.047763 509.952a505.681541 485.451852 0 1 0 1011.363081 0 505.681541 485.451852 0 1 0-1011.363081 0Z" fill="#FFDE2D" p-id="10115"></path><path d="M20.366222 509.952a505.681541 485.451852 0 1 0 1011.363082 0 505.681541 485.451852 0 1 0-1011.363082 0Z" fill="#327EFF" p-id="10116"></path><path d="M20.366222 509.952c0-268.105956 226.402607-485.451852 505.681541-485.451852v485.451852H20.366222z" fill="#327EFF" p-id="10117"></path><path d="M1031.729304 509.952c0 268.113541-226.402607 485.451852-505.681541 485.451852v-485.451852h505.681541zM526.047763 509.952c0-268.105956 226.402607-485.451852 505.681541-485.451852v485.451852H526.047763z" fill="#FF6446" p-id="10118"></path></svg>